<svg width="50" xmlns="http://www.w3.org/2000/svg" viewBox="0 0 1352.27 1118.17">
    <defs>
        <style>
            .cls-1 {
                fill: #cbd5e1;
            }
        </style>
    </defs>
    <title>Logo</title>
    <g id="Layer_2" data-name="Layer 2">
        <polygon class="cls-1"
            points="657.93 488.67 99.28 234.51 0 454.29 119.6 508.09 121.22 508.81 121.36 508.91 554.01 703.58 657.93 488.67" />
        <path class="cls-1"
            d="M884.09,1175.82a13.56,13.56,0,0,1-5.54-1.22L453.83,983.48,479,1324.21l507.23,234.92V982l-90,186.12A13.56,13.56,0,0,1,884.09,1175.82Z"
            transform="translate(-323.64 -440.96)" />
        <path class="cls-1" d="M1013.29,441V844.19a13.52,13.52,0,0,1-27,0V441L450.36,658.26l549.41,250,549.42-250Z"
            transform="translate(-323.64 -440.96)" />
        <polygon class="cls-1"
            points="1253 234.51 694.34 488.67 798.26 703.58 1230.92 508.91 1231.05 508.81 1232.54 508.18 1352.27 454.29 1253 234.51" />
        <path class="cls-1"
            d="M1115.45,1175.82a13.5,13.5,0,0,1-12.16-7.66l-90-186.12v577.09l507.24-234.92,25.19-340.73L1121,1174.6A13.52,13.52,0,0,1,1115.45,1175.82Z"
            transform="translate(-323.64 -440.96)" />
    </g>
</svg>